<?xml version="1.0" encoding="utf-8" ?>
<svg viewBox="0 0 700 700" xmlns="http://www.w3.org/2000/svg" xmlns:xlink="http://www.w3.org/1999/xlink">
    <!--<style>-->
    <!--    :root>svg {-->
    <!--        display: none-->
    <!--    }-->
    <!--    :root>svg:target {-->
    <!--        display: block-->
    <!--    }-->
    <!--</style>-->
    <svg viewBox="0 0 700 700" id="advance-rocket">
        <defs>
            <linearGradient id="aa" x1="259.8" gradientUnits="userSpaceOnUse" y1="457.12" gradientTransform="matrix(1.25 0 0 -1.25 0 700)" x2="551.93" y2="129.46">
                <stop stop-opacity=".25" offset="0" />
                <stop stop-opacity="0" offset="1" />
            </linearGradient>
        </defs>
        <circle class="circle" cy="350" cx="350" r="350" fill="#ffdb4d" />
        <path d="M352 109.47c-53.52 3.14-81.95 57.69-99.04 102.13-17.42 44.31-22.08 93.13-26.96 139.25-27.76 29.34-57.33 57.13-83.9 87.48-14.22 23.26-9.61 51.65-13.41 77.58 2.42 20.8 27.89 26.27 41.65 39.09 68.66 47.75 138.34 94.41 205.68 143.97a350 350 0 0 0 308.37-245.64c-93.4-106.89-186.29-214.27-280.47-320.42-13.93-13.39-32.14-23.6-51.92-23.44z"
        fill="url(#aa)" class="shadow" />
        <g id="trajectory">
            <g id="flames">
              <path fill="#ff1d25" d="m 379.65626,569.63679 c 0,18.66566 -29.84699,66.52732 -29.84699,66.52732 0,0 -29.847,-47.86165 -29.847,-66.52732 0,-18.66567 13.36296,-33.79719 29.847,-33.79719 16.48404,0 29.84699,15.13152 29.84699,33.79719 z" />
              <path d="m 366.893,558.33125 c 0,10.6838 -17.08374,48.19455 -17.08374,48.19455 0,0 -17.08373,-37.51075 -17.08373,-48.19455 0,-10.68381 7.64865,-19.34474 17.08373,-19.34474 9.43509,0 17.08374,8.66093 17.08374,19.34474 z" fill="#ff7c39"/>
              <path fill="#ffeca1" d="m 355.73516,547.28515 c 0,2.76209 -5.9259,29.39555 -5.9259,29.39555 0,0 -5.92589,-26.63346 -5.92589,-29.39555 0,-2.76208 2.65311,-5.0012 5.92589,-5.0012 3.27278,0 5.9259,2.23912 5.9259,5.0012 z"/>
            </g>            
            <g id="rocket">
                <path d="M250.8 343.68c-1.895-10.136-9.34-12.392-16.542-5.014l-88.84 91.01c-7.204 7.38-13.788 21.828-14.634 32.104l-4.315 52.505c-.846 10.278 6.9 18.724 17.213 18.77l43.052.188c10.312.046 27.188.14 37.5.208l43.368.293c10.312.068 17.2-8.168 15.304-18.305l-32.11-171.77z"
                fill="#ff1d25" />
                <path d="M448.82 343.68c1.895-10.136 9.34-12.392 16.54-5.014l88.84 91.01c7.203 7.38 13.79 21.828 14.633 32.104l4.316 52.505c.85 10.28-6.9 18.73-17.21 18.77l-43.052.188c-10.312.046-27.188.14-37.5.208l-43.368.293c-10.312.068-17.2-8.168-15.305-18.305l32.1-171.77z"
                fill="#bf161c" />
                <path d="M350.24 534.45c32.334 0 73.244 5.527 73.244 5.527 10.22 1.38 21.04-5.56 24.04-15.427 0 0 27.355-89.864 27.355-157.52 0-143.32-55.803-259.51-124.64-259.51S225.6 223.7 225.6 367.03c0 67.66 27.353 157.52 27.353 157.52 3.003 9.866 13.82 16.808 24.04 15.428 0 0 40.912-5.528 73.245-5.528"
                fill="#3fa9f5" />
                <path d="M415.22 524.55s23.346-89.864 23.346-157.52c0-136.42-43.15-248.25-97.97-258.7 3.25-.53 6.534-.805 9.85-.805 68.836 0 124.64 116.18 124.64 259.51 0 67.66-27.354 157.52-27.354 157.52-3.004 9.866-13.822 16.808-24.04 15.428 0 0-7.448-1.005-18.483-2.158 4.67-2.678 8.502-7.458 10.01-13.27"
                fill="#2f7fb8" />
                <path d="M380.48 254c0 16.69-13.528 30.216-30.215 30.216-16.688 0-30.215-13.528-30.215-30.216s13.528-30.215 30.215-30.215c16.688 0 30.215 13.528 30.215 30.215M363.72 351.21c0 7.192-5.83 13.022-13.022 13.022s-13.02-5.83-13.02-13.022 5.828-13.022 13.02-13.022c7.193 0 13.022 5.83 13.022 13.022"
                fill="#bdccd4" />
            </g>
        </g>
    </svg>
    <svg id="bg-cover">
        <defs>
            <pattern id="ba" width="100" height="100" patternUnits="userSpaceOnUse">
                <circle cx="50" cy="50" r="40" class="shape soft" />
            </pattern>
            <pattern id="bc" x="-25" y="-25" width="50" height="50" patternUnits="userSpaceOnUse">
                <path class="shape soft" d="M0 0h100v100H0z" />
            </pattern>
            <pattern id="bd" x="40" y="50" width="100" height="100" patternUnits="userSpaceOnUse">
                <path class="shape soft" d="M0 0h100v100H0z" />
            </pattern>
            <pattern id="be" x="-10" y="-10" width="100" height="100" patternUnits="userSpaceOnUse">
                <path class="shape soft" d="M5 20h90l-45 80z" />
            </pattern>
            <pattern id="bb" x="30" y="30" width="100" height="100" patternUnits="userSpaceOnUse">
                <circle cx="50" cy="50" r="25" class="shape soft" />
            </pattern>
            <pattern id="bf" x="60" y="60" width="100" height="100" patternUnits="userSpaceOnUse">
                <path class="shape soft" d="M5 20h90l-45 80z" />
            </pattern>
        </defs>
        <rect width="100%" height="100%" fill="url(#ba)" />
        <rect width="100%" height="100%" fill="url(#bb)" />
        <rect width="100%" height="100%" fill="url(#bc)" />
        <rect width="100%" height="100%" fill="url(#bd)" />
        <rect width="100%" height="100%" fill="url(#be)" />
        <rect width="100%" height="100%" fill="url(#bf)" />
    </svg>
    <svg viewBox="0 0 700 700" id="enhance-speedometer">
        <defs>
            <linearGradient id="ca" x1="322.64" gradientUnits="userSpaceOnUse" y1="431.34" gradientTransform="matrix(1.25 0 0 -1.25 0 700)" x2="578.13" y2="175.85">
                <stop stop-opacity=".25" offset="0" />
                <stop stop-opacity="0" offset="1" />
            </linearGradient>
        </defs>
        <circle class="circle" cy="350" cx="350" r="350" fill="#ffdb4d" />
        <path class="shadow" d="M345.96 96.78c-111.06.598-215.08 82.8-241.14 190.88-27.058 99.18 14.06 211.55 98.15 270.4 62.33 46.24 124.34 92.92 186.59 139.27a350 350 0 0 0 307.94-307.4c-50.36-67.73-100.71-135.47-151.75-202.67-47.44-56.85-120.4-90.955-194.5-90.45-1.77-.03-3.53-.04-5.29-.032z"
        fill="url(#ca)" />
        <g id="speedometer">
            <path d="M604.7 350c0 140.67-114.03 254.7-254.7 254.7S95.3 490.67 95.3 350 209.33 95.3 350 95.3 604.7 209.33 604.7 350" fill="#bdccd4" />
            <path d="M581.05 350c0 127.61-103.44 231.05-231.05 231.05S118.95 477.61 118.95 350c0-127.6 103.44-231.05 231.05-231.05S581.05 222.39 581.05 350" fill="#8e999f" />
            <path d="M564.13 350c0 118.26-95.87 214.13-214.13 214.13S135.87 468.26 135.87 350 231.74 135.87 350 135.87 564.13 231.74 564.13 350" fill="#333" />
            <path d="M356.25 200H345v-32.5h11.25V200zM280.45 217.03l-9.738 5.622-16.242-28.13 9.74-5.624 16.24 28.132zM223.28 269.63l-5.622 9.74-28.132-16.243 5.622-9.74 28.132 16.243zM200 355h-32.5v-11.25H200V355zM217.03 419.55l5.622 9.738-28.13 16.242-5.624-9.74 28.132-16.24zM476.72 430.37l5.622-9.74 28.133 16.242-5.623 9.74-28.132-16.242zM500 345h32.5v11.25H500V345zM482.97 280.45l-5.622-9.74 28.13-16.24 5.623 9.738-28.13 16.242zM430.38 223.28l-9.74-5.622 16.24-28.13 9.74 5.62-16.24 28.132z"
            fill="#f2f2f2" />
            <path d="M410 479c0 4.692-3.804 8.496-8.496 8.496h-103.01c-4.693 0-8.496-3.803-8.496-8.496v-25.508c0-4.692 3.803-8.496 8.496-8.496h103.01c4.692 0 8.496 3.804 8.496 8.496v25.51z" fill="#bdccd4" />
            <path d="M410 476.5c0 4.692-3.804 8.496-8.496 8.496h-103.01c-4.693 0-8.496-3.803-8.496-8.496v-25.508c0-4.692 3.803-8.496 8.496-8.496h103.01c4.692 0 8.496 3.804 8.496 8.496V476.5z" fill="#2f7fb8" />
            <path d="M410 477.75c0 4.692-3.804 8.496-8.496 8.496h-103.01c-4.693 0-8.496-3.803-8.496-8.496v-25.508c0-4.692 3.803-8.496 8.496-8.496h103.01c4.692 0 8.496 3.804 8.496 8.496v25.508z" fill="#3fa9f5" />
            <path id="meter" fill="#3b9edb" d="M410 477.75c0 4.692-3.804 8.496-8.496 8.496h-103.01c-4.69 0-8.49-3.81-8.49-8.5v-25.508c0-4.692 3.804-8.496 8.496-8.496h103.01c4.692 0 8.496 3.804 8.496 8.496v25.508z" />
            <g id="needle">
                <path fill="#f2f2f2" d="M267.75 235c-2.45-.043-4.933.73-7 2.375l-.47.406c-4.723 3.76-5.51 10.62-1.75 15.345l56.563 71.094c-11.387 15.397-11.525 37.085.97 52.78 14.918 18.74 42.195 21.855 60.937 6.938 18.74-14.916 21.855-42.196 6.938-60.938-12.498-15.7-33.688-20.435-51.25-12.78l-56.562-71.095c-2.116-2.658-5.226-4.07-8.375-4.125z" />
                <path fill="none" d="m 432.15263,465.03498 c 2.45,0.043 4.933,-0.73 7,-2.375 l 0.47,-0.406 c 4.723,-3.76 5.51,-10.62 1.75,-15.345 l -56.563,-71.094 c 11.387,-15.397 11.525,-37.085 -0.97,-52.78 -14.918,-18.74 -42.195,-21.855 -60.937,-6.938 -18.74,14.916 -21.855,42.196 -6.938,60.938 12.498,15.7 33.688,20.435 51.25,12.78 l 56.562,71.095 c 2.116,2.658 5.226,4.07 8.375,4.125 z" />
            </g>
        </g>
    </svg>
    <svg viewBox="0 0 651.3692 356.75" id="logo">
        <path fill="#fff" d="M0 0v356.75l234.09-173.69h-99.844c1.17 0-3.487 9.752-10.47 21.844l-1.22 2.1c-6.98 12.092-13.548 21.844-14.718 21.844h-69.72c-1.17 0 3.52-9.752 10.5-21.844l1.22-2.094c6.985-12.1 13.552-21.85 14.722-21.85h-2.125v-9.375h2.125c-1.17 0-7.738-9.72-14.72-21.812l-1.217-2.12c-6.98-12.092-11.67-21.812-10.5-21.812h69.72c1.17 0 7.736 9.722 14.718 21.813l1.22 2.125c6.763 11.714 11.345 21.23 10.562 21.812h99.75zM268.5 173.69h39.03v-34.125l94.282 38.89-94.28 38.767v-34.156H268.5v173.69l240.41-178.37L268.5.006zM401.81 178.45z"
        />
        <path fill-rule="evenodd" fill="#fff" d="M565.65.082h85.714v356.61H565.65z" />
    </svg>
    <svg viewBox="0 0 252.71875 247.59769" id="mission-heart">
        <path d="M0 66.96c4.158 74.16 64.993 111.13 124.59 180.63 60.94-68.32 122.52-104.09 128.12-178.16-3.53-90.17-102.13-81.762-126.13-25.35C92.773-32.4 1.84.693 0 66.96z" fill="#ff8080" />
        <path d="M1.344 54.94C.57 58.806.114 62.83 0 66.974c4.158 74.167 65 111.13 124.59 180.63 29.8-33.41 59.74-59.03 83.22-85.16L1.34 54.943z" fill-opacity=".201" />
        <path d="M192.03 1.598c-26.56.14-54.22 16.056-65.47 42.5-4.43-10.032-9.83-18.192-15.9-24.625l-94.785 103.16c22.667 42.052 66.015 75.166 108.72 124.97 60.94-68.32 122.52-104.09 128.12-178.16-1.88-47.9-30.59-68-60.69-67.842z" fill-opacity=".196"
        fill="#fff" />
    </svg>
    <svg viewBox="0 0 700 700" id="open-source-logo">
        <defs>
            <linearGradient id="fa" y2="124.94" gradientUnits="userSpaceOnUse" y1="411.76" gradientTransform="matrix(1.25 0 0 -1.25 0 700)" x2="529.98" x1="243.16">
                <stop stop-opacity=".25" offset="0" />
                <stop stop-opacity="0" offset="1" />
            </linearGradient>
        </defs>
        <circle cy="350" cx="350" r="350" fill="#ffdb4d" />
        <path fill="url(#fa)" d="M345.64 129c-128.15.077-238.73 123.06-223.74 250.89 4.37 76.032 53.58 139.11 113.04 182.6 54.22 44.518 108.28 89.222 162.37 133.89a350 350 0 0 0 297.01-285.39c-59.936-72.172-119.26-144.93-180.81-215.68-42.53-42.21-101.86-66.488-161.76-66.21-2.043-.06-4.08-.09-6.115-.09z"
        />
        <path fill="#fff" d="M580.94 358.08c0-127.55-103.38-230.94-230.93-230.94-127.54 0-230.94 103.39-230.94 230.94 0 97.52 60.464 180.93 145.93 214.79l58.423-147.61c-26.75-10.59-45.676-36.67-45.676-67.174 0-39.9 32.36-72.25 72.26-72.25 39.908 0 72.258 32.35 72.258 72.25 0 30.503-18.942 56.585-45.666 67.175l58.405 147.61c85.484-33.857 145.93-117.27 145.93-214.79"
        />
    </svg>
    <svg viewBox="0 0 700 700" id="web-mobile">
        <defs>
            <linearGradient id="ga" x1="283.8" gradientUnits="userSpaceOnUse" y1="419.83" gradientTransform="matrix(1.25 0 0 -1.25 0 700)" x2="553.62" y2="150.01">
                <stop stop-opacity=".25" offset="0" />
                <stop stop-opacity="0" offset="1" />
            </linearGradient>
        </defs>
        <circle class="circle" cy="350" cx="350" r="350" fill="#ffdb4d"/>
        <path class="shadow" d="M390.94 109.75c-47.55 7.84-94.6 19.24-141.95 28.49-20.3 3.69-44.9 7.54-52.79 29.94-7.73 22.07 3.51 44.52 6.39 66.59 22.7 109.22 44.96 218.55 67.94 327.72 8.27 22.71 32.2 33.35 48.56 49.57 32.43 27.11 64.89 54.17 97.29 81.3h.01A350 350 0 0 0 687.21 442.3c-86.76-102.34-179.44-218.1-266.12-319.98-7.85-7.98-18.95-12.64-30.15-12.57z"
        fill="url(#ga)" />
        <g id="phone">
            <path class="colors" d="M436.95 264.24l-201.97 41.77-24.56-118.74L412.4 145.5l24.55 118.74z" fill-rule="evenodd" fill="#bdccd4" />
            <path class="colors" d="M461.5 382.98l-201.98 41.77-24.54-118.74 201.97-41.77 24.55 118.74z" fill-rule="evenodd" fill="#ff8080" />
            <path class="colors" d="M486.05 501.72l-201.97 41.77-24.56-118.74 201.98-41.77 24.55 118.74z" fill-rule="evenodd" fill="#ffe271" />
            <path id="glare" fill-rule="evenodd" fill="#fff" d="M412.4 145.5l-201.98 41.766 73.65 356.22z" fill-opacity=".165" />            
            <path fill="#20557b" d="M 389.24414 107.76953 C 386.43359 107.7753 383.58216 108.06305 380.72266 108.6543 L 224.86328 140.88477 C 201.98628 145.61477 187.27586 167.99409 192.00586 190.87109 L 267.77539 557.27148 C 272.50539 580.14848 294.88567 594.86091 317.76367 590.12891 L 473.62305 557.89844 C 496.49905 553.16844 511.21047 530.78816 506.48047 507.91016 L 430.71094 141.51172 C 426.57219 121.49434 408.918 107.72916 389.24414 107.76953 z M 412.40039 145.5 L 486.05078 501.7207 L 284.08008 543.49023 L 210.41992 187.26953 L 412.40039 145.5 z"
            fill-rule="evenodd" />
            <path d="M338.77 141.31c-.39-1.884-2.234-3.096-4.117-2.706l-55.606 11.5c-1.885.39-3.096 2.233-2.706 4.116l.11.522c.39 1.883 2.23 3.096 4.116 2.706l55.605-11.5c1.885-.39 3.097-2.232 2.707-4.117l-.1-.52zM352.75 138.69c.42 2.03 2.404 3.333 4.433 2.913 2.027-.42 3.332-2.404 2.912-4.432-.42-2.027-2.405-3.33-4.433-2.912-2.027.42-3.33 2.403-2.912 4.432M402.4 545.04c1.274 6.156-2.685 12.175-8.84 13.45-6.153 1.27-12.174-2.686-13.447-8.84-1.272-6.155 2.684-12.175 8.84-13.447 6.153-1.273 12.174 2.684 13.447 8.837"
            fill-rule="evenodd" fill="#bdccd4" />
        </g>
    </svg>
</svg>