<svg xmlns:rdf="http://www.w3.org/1999/02/22-rdf-syntax-ns#" xmlns="http://www.w3.org/2000/svg" xml:space="preserve" height="100%" width="100%" version="1.1" xmlns:cc="http://creativecommons.org/ns#" xmlns:dc="http://purl.org/dc/elements/1.1/" viewBox="0 0 700 700"><defs><linearGradient id="a" x1="322.64" gradientUnits="userSpaceOnUse" y1="431.34" gradientTransform="matrix(1.25,0,0,-1.25,0,700)" x2="578.13" y2="175.85"><stop stop-opacity=".25" offset="0"/><stop stop-opacity="0" offset="1"/></linearGradient></defs><circle cy="350" cx="350" r="350" fill="#ffdb4d"/><path d="m345.96 96.779c-111.06.599-215.08 82.801-241.14 190.88-27.058 99.18 14.06 211.55 98.15 270.4 62.33 46.24 124.34 92.92 186.59 139.27a350 350 0 0 0 307.94 -307.4c-50.36-67.73-100.71-135.47-151.75-202.67-47.44-56.85-120.4-90.954-194.5-90.448-1.77-.031-3.53-.042-5.29-.033z" fill="url(#a)"/><path d="m604.7 350c0 140.67-114.03 254.7-254.7 254.7s-254.7-114.03-254.7-254.7 114.03-254.7 254.7-254.7 254.7 114.03 254.7 254.7" fill="#bdccd4"/><path d="m581.05 350c0 127.61-103.44 231.05-231.05 231.05s-231.05-103.44-231.05-231.05c0-127.6 103.44-231.05 231.05-231.05s231.05 103.44 231.05 231.05" fill="#8e999f"/><path d="m564.13 350c0 118.26-95.869 214.13-214.13 214.13s-214.13-95.87-214.13-214.13 95.869-214.13 214.13-214.13 214.13 95.87 214.13 214.13" fill="#333"/><path d="m356.25 200h-11.25v-32.5h11.25v32.5z" fill="#f2f2f2"/><path d="m280.45 217.03-9.7375 5.6225-16.242-28.132 9.7388-5.6225 16.241 28.132z" fill="#f2f2f2"/><path d="m223.28 269.63-5.6225 9.7388-28.132-16.242 5.6225-9.7388 28.132 16.242z" fill="#f2f2f2"/><path d="m200 355h-32.5v-11.25h32.5v11.25z" fill="#f2f2f2"/><path d="m217.03 419.55 5.6225 9.7375-28.132 16.242-5.6225-9.7388 28.132-16.241z" fill="#f2f2f2"/><path d="m476.72 430.37 5.6225-9.74 28.132 16.242-5.6225 9.7388-28.132-16.241z" fill="#f2f2f2"/><path d="m500 345h32.5v11.25h-32.5v-11.25z" fill="#f2f2f2"/><path d="m482.97 280.45-5.6225-9.7388 28.131-16.241 5.6225 9.7375-28.131 16.242z" fill="#f2f2f2"/><path d="m430.38 223.28-9.74-5.6225 16.241-28.131 9.7388 5.6212-16.24 28.132z" fill="#f2f2f2"/><path d="m410 479c0 4.6925-3.8038 8.4963-8.4962 8.4963h-103.01c-4.6925 0-8.4962-3.8038-8.4962-8.4963v-25.508c0-4.6925 3.8038-8.4962 8.4962-8.4962h103.01c4.6925 0 8.4962 3.8037 8.4962 8.4962v25.51z" fill="#bdccd4"/><path d="m410 476.5c0 4.6925-3.8038 8.4963-8.4962 8.4963h-103.01c-4.6925 0-8.4962-3.8038-8.4962-8.4963v-25.508c0-4.6925 3.8038-8.4962 8.4962-8.4962h103.01c4.6925 0 8.4962 3.8037 8.4962 8.4962v25.508z" fill="#2f7fb8"/><path d="m410 477.75c0 4.6925-3.8038 8.4963-8.4962 8.4963h-103.01c-4.6925 0-8.4962-3.8038-8.4962-8.4963v-25.508c0-4.6925 3.8038-8.4962 8.4962-8.4962h103.01c4.6925 0 8.4962 3.8037 8.4962 8.4962v25.508z" fill="#3fa9f5"/><path fill="#3b9edb" d="m410 477.75c0 4.6925-3.8038 8.4962-8.4962 8.4962h-103.01c-4.69 0-8.49-3.81-8.49-8.5v-25.508c0-4.6925 3.8038-8.4962 8.4962-8.4962h103.01c4.6925 0 8.4962 3.8038 8.4962 8.4962v25.508z"/><path d="m267.75 235c-2.4498-.0431-4.9334.73-7 2.375l-.46875.40625c-4.7238 3.76-5.5112 10.62-1.75 15.344l56.562 71.094c-11.387 15.398-11.525 37.086.96875 52.781 14.919 18.741 42.196 21.855 60.938 6.9375 18.74-14.916 21.855-42.196 6.9375-60.938-12.498-15.701-33.688-20.435-51.25-12.781l-56.562-71.094c-2.1157-2.6578-5.2252-4.0695-8.375-4.125z" fill="#f2f2f2"/></svg>
