<svg xmlns:rdf="http://www.w3.org/1999/02/22-rdf-syntax-ns#" xmlns="http://www.w3.org/2000/svg" height="100%" width="100%" version="1.1" xmlns:cc="http://creativecommons.org/ns#" xmlns:dc="http://purl.org/dc/elements/1.1/" viewBox="0 0 651.3692 356.75">
 <path fill="#606" d="m0 0v356.75l234.09-173.69h-99.844c1.1702 0-3.4875 9.7519-10.469 21.844l-1.22 2.1c-6.9812 12.092-13.549 21.844-14.719 21.844h-69.719c-1.1702 0 3.5188-9.7519 10.5-21.844l1.2188-2.0938c6.985-12.1 13.552-21.85 14.722-21.85h-2.125v-9.375h2.125c-1.1702 0-7.7375-9.7207-14.719-21.812l-1.218-2.12c-6.9812-12.092-11.67-21.812-10.5-21.812h69.719c1.1702 0 7.7375 9.7207 14.719 21.812l1.2188 2.125c6.7631 11.714 11.345 21.23 10.562 21.812h99.75z"/>
 <path fill="#606" d="m268.5 173.69h39.031v-34.125l94.281 38.891-94.281 38.766v-34.156h-39.031v173.69l240.41-178.37-240.41-178.38z"/>
 <path fill="#606" d="m401.81 178.45z"/>
 <rect fill-rule="evenodd" height="356.61" width="85.714" y=".082378" x="565.65" fill="#606"/>
</svg>
