<svg xmlns:rdf="http://www.w3.org/1999/02/22-rdf-syntax-ns#" xmlns="http://www.w3.org/2000/svg" xml:space="preserve" height="100%" width="100%" version="1.1" xmlns:cc="http://creativecommons.org/ns#" xmlns:dc="http://purl.org/dc/elements/1.1/" viewBox="0 0 700 700"><defs><linearGradient id="a" x1="259.8" gradientUnits="userSpaceOnUse" y1="457.12" gradientTransform="matrix(1.25,0,0,-1.25,0,700)" x2="551.93" y2="129.46"><stop stop-opacity=".25" offset="0"/><stop stop-opacity="0" offset="1"/></linearGradient></defs><circle cy="350" cx="350" r="350" fill="#ffdb4d"/><path d="m352 109.47c-53.52 3.14-81.95 57.69-99.04 102.13-17.42 44.31-22.08 93.13-26.96 139.25-27.76 29.34-57.33 57.13-83.9 87.48-14.22 23.26-9.61 51.65-13.41 77.58 2.42 20.8 27.89 26.27 41.65 39.09 68.66 47.75 138.34 94.41 205.68 143.97a350 350 0 0 0 308.37 -245.64c-93.4-106.89-186.29-214.27-280.47-320.42-13.93-13.39-32.14-23.6-51.92-23.44z" fill="url(#a)"/><path d="m250.8 343.68c-1.895-10.136-9.3388-12.392-16.542-5.0138l-88.84 91.01c-7.2038 7.38-13.788 21.828-14.634 32.104l-4.315 52.505c-.845 10.278 6.9012 18.724 17.214 18.77l43.052.1875c10.312.0462 27.188.14 37.499.20875l43.369.29125c10.312.0687 17.2-8.1675 15.304-18.305l-32.11-171.77z" fill="#ff1d25"/><path d="m448.82 343.68c1.895-10.136 9.3388-12.392 16.541-5.0138l88.84 91.01c7.2025 7.38 13.788 21.828 14.632 32.104l4.3162 52.505c.85 10.28-6.9 18.73-17.21 18.77l-43.051.1875c-10.312.0462-27.188.14-37.5.20875l-43.368.29125c-10.312.0687-17.2-8.1675-15.305-18.305l32.1-171.77z" fill="#bf161c"/><path d="m350.24 534.45c32.334 0 73.244 5.5275 73.244 5.5275 10.22 1.38 21.039-5.5612 24.041-15.428 0 0 27.354-89.864 27.354-157.52 0-143.32-55.802-259.51-124.64-259.51-68.836 0-124.64 116.18-124.64 259.51 0 67.66 27.354 157.52 27.354 157.52 3.0025 9.8662 13.821 16.808 24.041 15.428 0 0 40.911-5.5275 73.244-5.5275" fill="#3fa9f5"/><path d="m415.22 524.55s23.346-89.864 23.346-157.52c0-136.42-43.15-248.25-97.971-258.7 3.25-.53 6.535-.805 9.8512-.805 68.836 0 124.64 116.18 124.64 259.51 0 67.661-27.354 157.52-27.354 157.52-3.0038 9.8662-13.822 16.808-24.041 15.428 0 0-7.4475-1.005-18.482-2.1575 4.6712-2.6788 8.5025-7.4588 10.012-13.27" fill="#2f7fb8"/><path d="m380.48 254c0 16.689-13.528 30.216-30.215 30.216-16.688 0-30.215-13.528-30.215-30.216s13.528-30.215 30.215-30.215c16.688 0 30.215 13.528 30.215 30.215" fill="#bdccd4"/><path d="m363.72 351.21c0 7.1925-5.83 13.022-13.022 13.022-7.1925 0-13.021-5.83-13.021-13.022 0-7.1925 5.8288-13.022 13.021-13.022 7.1925 0 13.022 5.83 13.022 13.022" fill="#bdccd4"/></svg>
