<svg xmlns:rdf="http://www.w3.org/1999/02/22-rdf-syntax-ns#" xmlns="http://www.w3.org/2000/svg" height="100%" width="100%" version="1.1" xmlns:cc="http://creativecommons.org/ns#" xmlns:dc="http://purl.org/dc/elements/1.1/" viewBox="0 0 252.71875 247.59769">
 <path d="m.000166 66.959c4.1583 74.161 64.993 111.13 124.59 180.63 60.94-68.32 122.52-104.09 128.12-178.16-3.53-90.169-102.13-81.761-126.13-25.348-33.807-76.481-124.74-43.389-126.58 22.877z" fill="#ff8080"/>
 <path d="m1.3437 54.941c-.77518 3.864-1.2288 7.89-1.3437 12.032 4.1583 74.167 65.001 111.13 124.59 180.63 29.8-33.41 59.74-59.03 83.22-85.16l-206.47-107.5z" fill-opacity=".20106"/>
 <path d="m192.03 1.5977c-26.56.1390-54.22 16.056-65.47 42.5-4.43-10.032-9.83-18.192-15.9-24.625l-94.785 103.16c22.667 42.052 66.015 75.166 108.72 124.97 60.941-68.321 122.52-104.09 128.12-178.16-1.88-47.901-30.59-68-60.69-67.842z" fill-opacity=".19577" fill="#fff"/>
</svg>
