<svg xmlns:rdf="http://www.w3.org/1999/02/22-rdf-syntax-ns#" xmlns="http://www.w3.org/2000/svg" version="1.1" xmlns:cc="http://creativecommons.org/ns#" xmlns:dc="http://purl.org/dc/elements/1.1/" viewBox="0 0 700 700">
 <defs>
  <linearGradient id="a" y2="124.94" gradientUnits="userSpaceOnUse" y1="411.76" gradientTransform="matrix(1.25 0 0 -1.25 .0000061719 700)" x2="529.98" x1="243.16">
   <stop stop-opacity=".25" offset="0"/>
   <stop stop-opacity="0" offset="1"/>
  </linearGradient>
 </defs>
 <circle cy="350" cx="350" r="350" fill="#ffdb4d"/>
 <path fill="url(#a)" d="m345.64 129c-128.15.077-238.73 123.06-223.74 250.89 4.37 76.032 53.58 139.11 113.04 182.6 54.22 44.518 108.28 89.222 162.37 133.89a350 350 0 0 0 297.01 -285.39c-59.936-72.172-119.26-144.93-180.81-215.68-42.53-42.21-101.86-66.488-161.76-66.21-2.043-.06-4.08-.09-6.115-.09z"/>
 <path fill="#fff" d="m580.94 358.08c0-127.55-103.38-230.94-230.93-230.94-127.54 0-230.94 103.39-230.94 230.94 0 97.52 60.464 180.93 145.93 214.79l58.423-147.61c-26.75-10.59-45.676-36.67-45.676-67.174 0-39.9 32.36-72.25 72.26-72.25 39.908 0 72.258 32.35 72.258 72.25 0 30.503-18.942 56.585-45.666 67.175l58.406 147.61c85.484-33.858 145.93-117.27 145.93-214.79"/>
</svg>
