<svg xmlns:rdf="http://www.w3.org/1999/02/22-rdf-syntax-ns#" xmlns="http://www.w3.org/2000/svg" xml:space="preserve" height="100%" width="100%" version="1.1" xmlns:cc="http://creativecommons.org/ns#" xmlns:dc="http://purl.org/dc/elements/1.1/" viewBox="0 0 700 700"><defs><linearGradient id="b" x1="283.8" gradientUnits="userSpaceOnUse" y1="419.83" gradientTransform="matrix(1.25,0,0,-1.25,0,700)" x2="553.62" y2="150.01"><stop stop-opacity=".25" offset="0"/><stop stop-opacity="0" offset="1"/></linearGradient></defs><circle style="filter-blend-mode:normal;color-rendering:auto;color:#000000;isolation:auto;mix-blend-mode:normal;filter-gaussianBlur-deviation:0;shape-rendering:auto;solid-color:#000000;image-rendering:auto" cy="350" cx="350" r="350" fill="#ffdb4d"/><path d="m390.94 109.75c-47.55 7.84-94.6 19.24-141.95 28.49-20.3 3.69-44.9 7.54-52.79 29.94-7.73 22.07 3.51 44.52 6.39 66.59 22.7 109.22 44.96 218.55 67.94 327.72 8.27 22.71 32.2 33.35 48.56 49.57 32.43 27.11 64.89 54.17 97.29 81.3h.01a350 350 0 0 0 270.82 -251.06c-86.76-102.34-179.44-218.1-266.12-319.98-7.85-7.98-18.95-12.64-30.15-12.57z" fill="url(#b)"/><path fill="#20557b" d="m506.48 507.91c4.7312 22.878-9.9788 45.258-32.856 49.988l-155.86 32.229c-22.878 4.7325-45.258-9.9788-49.988-32.856l-75.769-366.4c-4.73-22.878 9.98-45.258 32.856-49.988l155.86-32.229c22.876-4.7312 45.258 9.9788 49.988 32.856l75.768 366.4z" fill-rule="evenodd"/><path d="m338.77 141.31c-.39-1.8838-2.2338-3.0962-4.1175-2.7062l-55.605 11.499c-1.885.39-3.0962 2.2338-2.7062 4.1175l.1075.52125c.39 1.8838 2.2325 3.0962 4.1175 2.7062l55.605-11.499c1.8838-.39 3.0962-2.2325 2.7062-4.1175l-.10-.52z" fill-rule="evenodd" fill="#bdccd4"/><path d="m352.75 138.69c.42 2.0288 2.4038 3.3325 4.4325 2.9125 2.0275-.42 3.3325-2.4038 2.9125-4.4312-.42-2.0288-2.405-3.3325-4.4325-2.9138-2.0275.42-3.3312 2.4038-2.9125 4.4325" fill-rule="evenodd" fill="#bdccd4"/><path d="m402.4 545.04c1.2738 6.1562-2.685 12.175-8.8388 13.449-6.1538 1.2712-12.175-2.685-13.448-8.84-1.2725-6.1538 2.6838-12.174 8.8388-13.446 6.1538-1.2725 12.175 2.6838 13.448 8.8375" fill-rule="evenodd" fill="#bdccd4"/><path d="m436.95 264.24-201.97 41.77-24.56-118.74 201.98-41.77 24.55 118.74z" fill-rule="evenodd" fill="#bdccd4"/><path d="m461.5 382.98-201.98 41.77-24.54-118.74 201.97-41.77 24.55 118.74z" fill-rule="evenodd" fill="#ff8080"/><path d="m486.05 501.72-201.97 41.77-24.56-118.74 201.98-41.77 24.55 118.74z" fill-rule="evenodd" fill="#ffe271"/><path d="m412.4 145.5-128.32 397.99" fill="none"/><path d="m412.4 145.5-128.32 397.99" fill="none"/><path d="m412.4 145.5-128.32 397.99" fill="none"/><path fill-rule="evenodd" fill="#fff" d="m412.4 145.5-201.98 41.766 73.65 356.22z" fill-opacity=".16471"/></svg>
